<?xml version="1.0" encoding="utf-8"?>
<!-- Generator: Avocode 2.6.0 - http://avocode.com -->
<svg height="26" width="34" xmlns:xlink="http://www.w3.org/1999/xlink" xmlns="http://www.w3.org/2000/svg" viewBox="0 0 34 26">
    <path fill="#2796f4" fill-rule="evenodd" d="M 31.45 21.46 C 31.45 21.68 31.41 21.88 31.35 22.07 L 22.01 12.03 L 31.45 4.69 L 31.45 21.46 L 31.45 21.46 Z M 3.73 23.5 L 13.19 13.42 L 16.77 16.13 L 20.2 13.41 L 29.82 23.5 C 29.67 23.54 3.88 23.54 3.73 23.5 L 3.73 23.5 Z M 2.1 21.46 L 2.1 4.69 L 11.53 12.03 L 2.2 22.07 C 2.14 21.88 2.1 21.68 2.1 21.46 L 2.1 21.46 Z M 30.4 2.59 L 16.77 13.08 L 3.14 2.59 L 30.4 2.59 L 30.4 2.59 Z M 29.35 0.5 L 4.19 0.5 C 1.88 0.5 0 2.38 0 4.69 L 0 21.46 C 0 23.78 1.88 25.66 4.19 25.66 L 29.35 25.66 C 31.67 25.66 33.55 23.78 33.55 21.46 L 33.55 4.69 C 33.55 2.38 31.67 0.5 29.35 0.5 L 29.35 0.5 Z M 29.35 0.5" />
</svg>
